<svg width="580" height="270" viewBox="0 0 580 270" fill="none" xmlns="http://www.w3.org/2000/svg" role="img" aria-labelledby="title desc">
  <title id="title">ARGUS</title><desc id="desc">LLM red-team and model-risk platform.</desc>
  <defs><linearGradient id="bg" x1="0" y1="0" x2="580" y2="270"><stop stop-color="#07111F"/><stop offset="1" stop-color="#2B111D"/></linearGradient></defs>
  <rect x="1" y="1" width="578" height="268" rx="22" fill="url(#bg)" stroke="#881337" stroke-width="2"/><rect x="1" y="1" width="7" height="268" rx="3.5" fill="#FB7185"/>
  <g font-family="-apple-system, BlinkMacSystemFont, Segoe UI, Arial, sans-serif">
    <rect x="28" y="28" width="58" height="58" rx="17" fill="#3B1524" stroke="#E11D48"/><path d="M40 57C48 45 67 45 75 57C67 69 48 69 40 57Z" stroke="#FDA4AF" stroke-width="3"/><circle cx="57.5" cy="57" r="6" fill="#FB7185"/>
    <text x="106" y="47" fill="#FDA4AF" font-size="10" font-weight="800" letter-spacing="1.4">MODEL RISK + RED TEAM</text>
    <text x="106" y="77" fill="#F8FAFC" font-size="28" font-weight="760">ARGUS</text>
    <text x="28" y="120" fill="#CBD5E1" font-size="15" font-weight="600">LLM red-team platform for prompt, tool,</text>
    <text x="28" y="143" fill="#CBD5E1" font-size="15" font-weight="600">privacy, and citation failures.</text>
    <text x="28" y="170" fill="#94A3B8" font-size="13">Guardrails · eval suites · CI policy gates</text>
    <path d="M28 190H552" stroke="#881337"/>
    <g font-size="10" font-weight="800" fill="#FECDD3">
      <rect x="28" y="207" width="68" height="25" rx="12.5" fill="#3B1524"/><text x="62" y="224" text-anchor="middle">PYTHON</text>
      <rect x="104" y="207" width="78" height="25" rx="12.5" fill="#3B1524"/><text x="143" y="224" text-anchor="middle">LLM EVALS</text>
      <rect x="190" y="207" width="88" height="25" rx="12.5" fill="#3B1524"/><text x="234" y="224" text-anchor="middle">GUARDRAILS</text>
    </g>
    <text x="552" y="251" text-anchor="end" fill="#FDA4AF" font-size="11" font-weight="800" letter-spacing="1">OPEN REPOSITORY</text>
  </g>
</svg>
