<svg width="1200" height="230" viewBox="0 0 1200 230" fill="none" xmlns="http://www.w3.org/2000/svg" role="img" aria-labelledby="title desc">
  <title id="title">ARGUS</title><desc id="desc">LLM red-team and model-risk platform using Python, FastAPI, evaluations, guardrails, and CI gates.</desc>
  <defs><linearGradient id="bg" x1="0" y1="0" x2="1200" y2="230" gradientUnits="userSpaceOnUse"><stop stop-color="#07111F"/><stop offset="1" stop-color="#2B111D"/></linearGradient><linearGradient id="bar" x1="0" y1="0" x2="0" y2="230"><stop stop-color="#FB7185"/><stop offset="1" stop-color="#E11D48"/></linearGradient></defs>
  <rect x="1" y="1" width="1198" height="228" rx="24" fill="url(#bg)" stroke="#881337" stroke-width="2"/><rect x="1" y="1" width="8" height="228" rx="4" fill="url(#bar)"/>
  <g font-family="-apple-system, BlinkMacSystemFont, Segoe UI, Arial, sans-serif">
    <rect x="42" y="42" width="72" height="72" rx="20" fill="#3B1524" stroke="#E11D48"/><path d="M56 79C66 64 90 64 100 79C90 94 66 94 56 79Z" stroke="#FDA4AF" stroke-width="4"/><circle cx="78" cy="79" r="8" fill="#FB7185"/>
    <text x="144" y="64" fill="#FDA4AF" font-size="12" font-weight="800" letter-spacing="1.6">MODEL RISK + RED TEAM</text>
    <text x="144" y="104" fill="#F8FAFC" font-size="34" font-weight="760">ARGUS</text>
    <text x="144" y="137" fill="#CBD5E1" font-size="18" font-weight="600">Prompt injection, unsafe tool use, PII leakage, citation failure, and guardrail testing.</text>
    <text x="144" y="168" fill="#94A3B8" font-size="15">Reviewable findings · risk reports · repeatable evaluation suites · CI policy gates</text>
    <g font-size="12" font-weight="750" fill="#FECDD3"><text x="144" y="204">PYTHON</text><text x="216" y="204">FASTAPI</text><text x="292" y="204">LLM EVALS</text><text x="388" y="204">GUARDRAILS</text><text x="492" y="204">CI</text></g>
    <rect x="1002" y="83" width="150" height="48" rx="24" fill="#3B1524" stroke="#E11D48"/><text x="1077" y="113" text-anchor="middle" fill="#FECDD3" font-size="12" font-weight="800">VIEW REPOSITORY</text>
  </g>
</svg>
