<svg width="1200" height="230" viewBox="0 0 1200 230" fill="none" xmlns="http://www.w3.org/2000/svg" role="img" aria-labelledby="title desc">
  <title id="title">VANGUARD</title><desc id="desc">AI release intelligence and pull-request risk copilot using FastAPI, Next.js, Neo4j, OpenSearch, and Redis.</desc>
  <defs><linearGradient id="bg" x1="0" y1="0" x2="1200" y2="230" gradientUnits="userSpaceOnUse"><stop stop-color="#07111F"/><stop offset="1" stop-color="#2B2011"/></linearGradient><linearGradient id="bar" x1="0" y1="0" x2="0" y2="230"><stop stop-color="#FCD34D"/><stop offset="1" stop-color="#D97706"/></linearGradient></defs>
  <rect x="1" y="1" width="1198" height="228" rx="24" fill="url(#bg)" stroke="#784A12" stroke-width="2"/><rect x="1" y="1" width="8" height="228" rx="4" fill="url(#bar)"/>
  <g font-family="-apple-system, BlinkMacSystemFont, Segoe UI, Arial, sans-serif">
    <rect x="42" y="42" width="72" height="72" rx="20" fill="#3A2B16" stroke="#D97706"/><path d="M78 59L99 68V82C99 96 90 105 78 110C66 105 57 96 57 82V68L78 59Z" stroke="#FCD34D" stroke-width="4"/><path d="M68 82L75 89L89 73" stroke="#FCD34D" stroke-width="4" stroke-linecap="round" stroke-linejoin="round"/>
    <text x="144" y="64" fill="#FCD34D" font-size="12" font-weight="800" letter-spacing="1.6">ENGINEERING INTELLIGENCE</text>
    <text x="144" y="104" fill="#F8FAFC" font-size="34" font-weight="760">VANGUARD</text>
    <text x="144" y="137" fill="#CBD5E1" font-size="18" font-weight="600">PR risk scoring, blast-radius mapping, CI diagnostics, and release-readiness gates.</text>
    <text x="144" y="168" fill="#94A3B8" font-size="15">Dependency intelligence · test gaps · policy decisions · operator summaries</text>
    <g font-size="12" font-weight="750" fill="#FDE68A"><text x="144" y="204">FASTAPI</text><text x="220" y="204">NEXT.JS</text><text x="300" y="204">NEO4J</text><text x="364" y="204">OPENSEARCH</text><text x="474" y="204">REDIS</text></g>
    <rect x="1002" y="83" width="150" height="48" rx="24" fill="#3A2B16" stroke="#D97706"/><text x="1077" y="113" text-anchor="middle" fill="#FDE68A" font-size="12" font-weight="800">VIEW REPOSITORY</text>
  </g>
</svg>
